<svg xmlns:xlink="http://www.w3.org/1999/xlink" xmlns="http://www.w3.org/2000/svg" width="405.93" height="264.02" viewBox="0 0 405.93 264.02"><path d="M98.33,180.08l3.58-4.73.88.24a22.6,22.6,0,0,0,3.21.78,8.57,8.57,0,0,0,3.08-4.19,51.41,51.41,0,0,0,1.45-9.54l2.35-26.19a14.88,14.88,0,0,0-9.34,3.9,11.28,11.28,0,0,0-3.49,8.48,13.66,13.66,0,0,0,1.24,5.77l-4.53,4.94a24.81,24.81,0,0,1-.59-5.43,20,20,0,0,1,6.49-15.41q6.5-6,16.6-6,13,0,13,9.25,0,7.89-9.05,12.62,8.85,4,8.86,12.2a12.53,12.53,0,0,1-5.5,10.67q-5.49,4-14.7,4A84.52,84.52,0,0,1,98.33,180.08Zm17.21-22.7-.42,4.66-.25,2.92q-.48,5.19-1.68,7.29t-5.08,4.54a55.64,55.64,0,0,0,11,1.13q8.81,0,8.81-8.63a12.4,12.4,0,0,0-2.42-7.19,12.22,12.22,0,0,0-5.89-4.72l-.73,0-1.36.06-1.24-.06Zm1.9-21.2-1.65,18.38a27,27,0,0,0,2.88.17,26.29,26.29,0,0,0,3.24-.24q6-4.26,6-10.27Q127.91,136.18,117.44,136.18Z" transform="translate(-53.03 0.02)" style="fill:#ebb973"/><path d="M166.38,167.09a44.36,44.36,0,0,1-7,10.61q-3.81,4.13-6.63,4.12-3.85,0-3.85-7.69a30.33,30.33,0,0,1,5.62-18.33q5.63-7.76,13.31-7.75a12.38,12.38,0,0,1,5,.9c-.09.42-.15.68-.17.77l-.33,1.84c-.23,1.28-.35,2-.37,2.23l-1.8,15.37-.26,2.22c-.24,2.21-.36,3.68-.36,4.42,0,1,.23,1.49.7,1.49q2.36,0,4.82-6.51a1.51,1.51,0,0,1,.76,1.12q0,1.22-2.42,4.91-3.3,5-6.12,5c-1.37,0-2.05-1.14-2.05-3.41a26.63,26.63,0,0,1,.2-2.89l.28-2.79.37-3.06ZM168,153.3a9.07,9.07,0,0,0-5.19-1.77q-3.95,0-6.62,5.95t-2.68,14.74q0,4.51,2.17,4.52,2.51,0,6.06-4.73a30.35,30.35,0,0,0,5.81-14.95Z" transform="translate(-53.03 0.02)" style="fill:#ebb973"/><path d="M201.46,170.68a1.43,1.43,0,0,1,.81,1.25q0,2.5-3,6.2t-5.09,3.69q-2.34,0-2.34-4.18c0-1.69.09-3.42.26-5.18l.31-3.1,2.17-24.24q1-11.07,6.15-18.48t11.85-7.42a9.6,9.6,0,0,1,2.76.35l-4,5.05a7.93,7.93,0,0,0-3.09-.56,6.82,6.82,0,0,0-6.32,3.67q-2.1,3.67-2.88,12.44l-2.62,29.16c-.2,2.25-.31,3.86-.31,4.83,0,2.09.29,3.13.88,3.13s1.5-.68,2.43-2.06A14.32,14.32,0,0,0,201.46,170.68Z" transform="translate(-53.03 0.02)" style="fill:#ebb973"/><path d="M228.38,170.68a1.43,1.43,0,0,1,.81,1.25q0,2.5-3,6.2t-5.08,3.69q-2.34,0-2.34-4.18c0-1.69.09-3.42.25-5.18l.31-3.1,2.18-24.24q1-11.07,6.15-18.48t11.84-7.42a9.51,9.51,0,0,1,2.76.35l-4,5.05a8,8,0,0,0-3.1-.56,6.8,6.8,0,0,0-6.31,3.67q-2.1,3.67-2.89,12.44l-2.61,29.16c-.21,2.25-.31,3.86-.31,4.83,0,2.09.29,3.13.87,3.13s1.51-.68,2.44-2.06A14.54,14.54,0,0,0,228.38,170.68Z" transform="translate(-53.03 0.02)" style="fill:#ebb973"/><path d="M261,169.84a1.78,1.78,0,0,1,.7,1.4q0,1.08-1.8,3.69-4.81,6.88-9.52,6.89a5.51,5.51,0,0,1-4.73-2.82,12.85,12.85,0,0,1-1.86-7.21,31.14,31.14,0,0,1,4.86-16.06q4.86-8.13,9.62-8.13,3.44,0,3.43,4.56a15.59,15.59,0,0,1-4,10,21.13,21.13,0,0,1-9.79,6.79q.57,8.35,5.35,8.35T261,169.84Zm-13-5.15a4,4,0,0,0,1.5.35,8.32,8.32,0,0,0,6.11-2.65,8.51,8.51,0,0,0,2.62-6.19q0-4.08-3.35-4.08-2.43,0-4.38,3.57A23.42,23.42,0,0,0,248,164.69Z" transform="translate(-53.03 0.02)" style="fill:#ebb973"/><path d="M286,162.25q6.25-14.66,12.31-14.65a6.3,6.3,0,0,1,3.15.9l-4,5.36a4,4,0,0,0-2.31-.62q-2.93,0-6.18,5.86a30.72,30.72,0,0,0-3.81,12.21l-.76,8.49-4.19,1.74.09-1,.19-2.26.23-2.27,1.48-16.57.17-1.81c.13-1.37.19-2.48.19-3.34,0-1.42-.32-2.13-.95-2.13-1.51,0-3,2-4.49,6a1.78,1.78,0,0,1-.67-1.36q.08-2.13,3.14-5.62c2-2.34,3.66-3.5,4.84-3.5q2.4,0,2.4,3.9c0,.62,0,1.47-.14,2.54l-.2,2.43-.26,2.93Z" transform="translate(-53.03 0.02)" style="fill:#ebb973"/><path d="M326.05,170.78c.51.38.76.74.76,1.08q0,1.26-2.45,4.95-3.3,5-6.11,5c-1.37,0-2.06-1.12-2.06-3.37q0-1.42.85-8.77l1.09-9.45.29-2.4.22-1.92a16.88,16.88,0,0,0,.14-2q0-1.74-.78-1.74-2.19,0-4.71,6a1.79,1.79,0,0,1-.54-1.19c0-1.41,1.06-3.32,3.17-5.71s3.8-3.58,5.06-3.58,2.11,1.2,2.11,3.61c0,.47-.07,1.42-.22,2.85l-.26,2.33c0,.19-.12,1.13-.31,2.82l-1.15,9.95-.28,2.22c-.25,2.21-.37,3.68-.37,4.42,0,1,.23,1.49.7,1.49Q323.55,177.29,326.05,170.78Zm-5.63-27.68,2.36-7.2a14.14,14.14,0,0,0,5.18-4.42,2,2,0,0,1,.29,1Q328.25,137.15,320.42,143.1Z" transform="translate(-53.03 0.02)" style="fill:#ebb973"/><path d="M348.62,179.7l-4.21,2.12.08-1,.23-2.58.22-2.44,1.47-16.15.17-1.85c.11-1.44.17-2.6.17-3.48,0-1.48-.3-2.23-.9-2.23-1.41,0-2.93,2-4.54,5.92a1.78,1.78,0,0,1-.65-1.15q0-2.08,3.09-5.69t4.86-3.6c1.62,0,2.42,1.27,2.42,3.83,0,.65,0,1.52-.14,2.61l-.22,2.82-.23,2.37-.23,2.47a43.84,43.84,0,0,1,7.28-10.12q3.94-4,6.74-4t2.73,4.69c0,1-.09,2.38-.29,4.28l-1.53,13a52.94,52.94,0,0,0-.47,6.16c0,1.2.26,1.8.79,1.8q1.95,0,4.8-6.37a1.44,1.44,0,0,1,.68,1.08q0,2.26-3.15,5.94t-5.12,3.67c-1.46,0-2.2-1.3-2.2-3.9a71.2,71.2,0,0,1,.6-7.9l1-8.43a59.33,59.33,0,0,0,.48-6.51c0-1.83-.52-2.75-1.55-2.75q-3.6,0-7.3,6a29.5,29.5,0,0,0-4.32,13Z" transform="translate(-53.03 0.02)" style="fill:#ebb973"/><path d="M391.35,181.82q-6.35,0-6.34-10.37a29.46,29.46,0,0,1,5-16.11q4.95-7.74,10.28-7.74,6.42,0,6.42,10.37a29.37,29.37,0,0,1-5,16.12Q396.76,181.83,391.35,181.82Zm3.4-3.9c2.16,0,4-1.48,5.43-4.46a25.21,25.21,0,0,0,2.18-11.1q0-10.86-5.47-10.86c-2.14,0-3.93,1.49-5.39,4.47a25.25,25.25,0,0,0-2.18,11.09Q389.32,177.92,394.75,177.92Z" transform="translate(-53.03 0.02)" style="fill:#ebb973"/><path d="M98.33,180.08l3.58-4.73.88.24a22.6,22.6,0,0,0,3.21.78,8.57,8.57,0,0,0,3.08-4.19,51.41,51.41,0,0,0,1.45-9.54l2.35-26.19a14.88,14.88,0,0,0-9.34,3.9,11.28,11.28,0,0,0-3.49,8.48,13.66,13.66,0,0,0,1.24,5.77l-4.53,4.94a24.81,24.81,0,0,1-.59-5.43,20,20,0,0,1,6.49-15.41q6.5-6,16.6-6,13,0,13,9.25,0,7.89-9.05,12.62,8.85,4,8.86,12.2a12.53,12.53,0,0,1-5.5,10.67q-5.49,4-14.7,4A84.52,84.52,0,0,1,98.33,180.08Zm17.21-22.7-.42,4.66-.25,2.92q-.48,5.19-1.68,7.29t-5.08,4.54a55.64,55.64,0,0,0,11,1.13q8.81,0,8.81-8.63a12.4,12.4,0,0,0-2.42-7.19,12.22,12.22,0,0,0-5.89-4.72l-.73,0-1.36.06-1.24-.06Zm1.9-21.2-1.65,18.38a27,27,0,0,0,2.88.17,26.29,26.29,0,0,0,3.24-.24q6-4.26,6-10.27Q127.91,136.18,117.44,136.18Z" transform="translate(-53.03 0.02)" style="fill:#ebb973"/><path d="M166.38,167.09a44.36,44.36,0,0,1-7,10.61q-3.81,4.13-6.63,4.12-3.85,0-3.85-7.69a30.33,30.33,0,0,1,5.62-18.33q5.63-7.76,13.31-7.75a12.38,12.38,0,0,1,5,.9c-.09.42-.15.68-.17.77l-.33,1.84c-.23,1.28-.35,2-.37,2.23l-1.8,15.37-.26,2.22c-.24,2.21-.36,3.68-.36,4.42,0,1,.23,1.49.7,1.49q2.36,0,4.82-6.51a1.51,1.51,0,0,1,.76,1.12q0,1.22-2.42,4.91-3.3,5-6.12,5c-1.37,0-2.05-1.14-2.05-3.41a26.63,26.63,0,0,1,.2-2.89l.28-2.79.37-3.06ZM168,153.3a9.07,9.07,0,0,0-5.19-1.77q-3.95,0-6.62,5.95t-2.68,14.74q0,4.51,2.17,4.52,2.51,0,6.06-4.73a30.35,30.35,0,0,0,5.81-14.95Z" transform="translate(-53.03 0.02)" style="fill:#ebb973"/><path d="M201.46,170.68a1.43,1.43,0,0,1,.81,1.25q0,2.5-3,6.2t-5.09,3.69q-2.34,0-2.34-4.18c0-1.69.09-3.42.26-5.18l.31-3.1,2.17-24.24q1-11.07,6.15-18.48t11.85-7.42a9.6,9.6,0,0,1,2.76.35l-4,5.05a7.93,7.93,0,0,0-3.09-.56,6.82,6.82,0,0,0-6.32,3.67q-2.1,3.67-2.88,12.44l-2.62,29.16c-.2,2.25-.31,3.86-.31,4.83,0,2.09.29,3.13.88,3.13s1.5-.68,2.43-2.06A14.32,14.32,0,0,0,201.46,170.68Z" transform="translate(-53.03 0.02)" style="fill:#ebb973"/><path d="M228.38,170.68a1.43,1.43,0,0,1,.81,1.25q0,2.5-3,6.2t-5.08,3.69q-2.34,0-2.34-4.18c0-1.69.09-3.42.25-5.18l.31-3.1,2.18-24.24q1-11.07,6.15-18.48t11.84-7.42a9.51,9.51,0,0,1,2.76.35l-4,5.05a8,8,0,0,0-3.1-.56,6.8,6.8,0,0,0-6.31,3.67q-2.1,3.67-2.89,12.44l-2.61,29.16c-.21,2.25-.31,3.86-.31,4.83,0,2.09.29,3.13.87,3.13s1.51-.68,2.44-2.06A14.54,14.54,0,0,0,228.38,170.68Z" transform="translate(-53.03 0.02)" style="fill:#ebb973"/><path d="M261,169.84a1.78,1.78,0,0,1,.7,1.4q0,1.08-1.8,3.69-4.81,6.88-9.52,6.89a5.51,5.51,0,0,1-4.73-2.82,12.85,12.85,0,0,1-1.86-7.21,31.14,31.14,0,0,1,4.86-16.06q4.86-8.13,9.62-8.13,3.44,0,3.43,4.56a15.59,15.59,0,0,1-4,10,21.13,21.13,0,0,1-9.79,6.79q.57,8.35,5.35,8.35T261,169.84Zm-13-5.15a4,4,0,0,0,1.5.35,8.32,8.32,0,0,0,6.11-2.65,8.51,8.51,0,0,0,2.62-6.19q0-4.08-3.35-4.08-2.43,0-4.38,3.57A23.42,23.42,0,0,0,248,164.69Z" transform="translate(-53.03 0.02)" style="fill:#ebb973"/><path d="M286,162.25q6.25-14.66,12.31-14.65a6.3,6.3,0,0,1,3.15.9l-4,5.36a4,4,0,0,0-2.31-.62q-2.93,0-6.18,5.86a30.72,30.72,0,0,0-3.81,12.21l-.76,8.49-4.19,1.74.09-1,.19-2.26.23-2.27,1.48-16.57.17-1.81c.13-1.37.19-2.48.19-3.34,0-1.42-.32-2.13-.95-2.13-1.51,0-3,2-4.49,6a1.78,1.78,0,0,1-.67-1.36q.08-2.13,3.14-5.62c2-2.34,3.66-3.5,4.84-3.5q2.4,0,2.4,3.9c0,.62,0,1.47-.14,2.54l-.2,2.43-.26,2.93Z" transform="translate(-53.03 0.02)" style="fill:#ebb973"/><path d="M326.05,170.78c.51.38.76.74.76,1.08q0,1.26-2.45,4.95-3.3,5-6.11,5c-1.37,0-2.06-1.12-2.06-3.37q0-1.42.85-8.77l1.09-9.45.29-2.4.22-1.92a16.88,16.88,0,0,0,.14-2q0-1.74-.78-1.74-2.19,0-4.71,6a1.79,1.79,0,0,1-.54-1.19c0-1.41,1.06-3.32,3.17-5.71s3.8-3.58,5.06-3.58,2.11,1.2,2.11,3.61c0,.47-.07,1.42-.22,2.85l-.26,2.33c0,.19-.12,1.13-.31,2.82l-1.15,9.95-.28,2.22c-.25,2.21-.37,3.68-.37,4.42,0,1,.23,1.49.7,1.49Q323.55,177.29,326.05,170.78Zm-5.63-27.68,2.36-7.2a14.14,14.14,0,0,0,5.18-4.42,2,2,0,0,1,.29,1Q328.25,137.15,320.42,143.1Z" transform="translate(-53.03 0.02)" style="fill:#ebb973"/><path d="M348.62,179.7l-4.21,2.12.08-1,.23-2.58.22-2.44,1.47-16.15.17-1.85c.11-1.44.17-2.6.17-3.48,0-1.48-.3-2.23-.9-2.23-1.41,0-2.93,2-4.54,5.92a1.78,1.78,0,0,1-.65-1.15q0-2.08,3.09-5.69t4.86-3.6c1.62,0,2.42,1.27,2.42,3.83,0,.65,0,1.52-.14,2.61l-.22,2.82-.23,2.37-.23,2.47a43.84,43.84,0,0,1,7.28-10.12q3.94-4,6.74-4t2.73,4.69c0,1-.09,2.38-.29,4.28l-1.53,13a52.94,52.94,0,0,0-.47,6.16c0,1.2.26,1.8.79,1.8q1.95,0,4.8-6.37a1.44,1.44,0,0,1,.68,1.08q0,2.26-3.15,5.94t-5.12,3.67c-1.46,0-2.2-1.3-2.2-3.9a71.2,71.2,0,0,1,.6-7.9l1-8.43a59.33,59.33,0,0,0,.48-6.51c0-1.83-.52-2.75-1.55-2.75q-3.6,0-7.3,6a29.5,29.5,0,0,0-4.32,13Z" transform="translate(-53.03 0.02)" style="fill:#ebb973"/><path d="M391.35,181.82q-6.35,0-6.34-10.37a29.46,29.46,0,0,1,5-16.11q4.95-7.74,10.28-7.74,6.42,0,6.42,10.37a29.37,29.37,0,0,1-5,16.12Q396.76,181.83,391.35,181.82Zm3.4-3.9c2.16,0,4-1.48,5.43-4.46a25.21,25.21,0,0,0,2.18-11.1q0-10.86-5.47-10.86c-2.14,0-3.93,1.49-5.39,4.47a25.25,25.25,0,0,0-2.18,11.09Q389.32,177.92,394.75,177.92Z" transform="translate(-53.03 0.02)" style="fill:#ebb973"/><path d="M53,140.12c1.65-1.78,3.32-3.54,5.3-5.3a51.32,51.32,0,0,1,7.18-5.42,115.82,115.82,0,0,1,20.12-9.6,119,119,0,0,1,26.55-6.33,276,276,0,0,1,27.89-2c9.1-.25,18-.28,26.92-.43s17.8-.44,26.65-1.27a130.18,130.18,0,0,0,25.14-4.59c7.58-2.31,14-5.34,17.92-8.67s5.57-6.87,4.59-10A9.06,9.06,0,0,0,238,82.11a18.29,18.29,0,0,0-2.92-1.83c-.55-.3-1.14-.57-1.75-.83l-.43-.19-.54-.2c-.28-.11-.6-.23-.92-.33-5.2-1.8-12.95-2.37-20.79-1.6a69.12,69.12,0,0,0-11.46,2,51.84,51.84,0,0,0-5.2,1.59l-.61.22-.24.09-.36.14-.53.22-.51.22c-.71.31-1.36.64-2,1-2.45,1.33-4.08,2.86-4.65,4.38s0,3,1.54,4.17,3.91,2.07,7.24,2.31a35,35,0,0,0,10.65-1,22.17,22.17,0,0,0,4.52-1.59,5.57,5.57,0,0,0,2.39-2.06,1.66,1.66,0,0,0-.37-2.06,4.26,4.26,0,0,0-1.35-.83,6.76,6.76,0,0,0-1.85-.48,16.34,16.34,0,0,0-5.17.19,15.11,15.11,0,0,0-2.55.7,4.85,4.85,0,0,0-1.67.94c-.81.74-.66,1.55.56,2.06a5.81,5.81,0,0,0,2.31.3,9.05,9.05,0,0,0,2.89-.51,1.1,1.1,0,0,1,.65,0c.12.08.07.18-.09.25a12.39,12.39,0,0,1-7.27.59c-1.82-.54-2.56-1.67-1.67-2.8a5.87,5.87,0,0,1,2.31-1.61,20.3,20.3,0,0,1,3.53-1.16,27.31,27.31,0,0,1,8.16-.66,15.8,15.8,0,0,1,3.49.66,9.17,9.17,0,0,1,2.24,1.12,2.76,2.76,0,0,1,1.34,3c-.28,1.12-1.41,2.31-3.19,3.38a20.39,20.39,0,0,1-3.11,1.45,33.75,33.75,0,0,1-3.48,1.18,51.63,51.63,0,0,1-16.15,1.88,32.82,32.82,0,0,1-7.06-1c-.46-.13-1-.31-1.47-.48l-.3-.09-.35-.15-.57-.24-.55-.27a27.6,27.6,0,0,1-6.09,3.9,66,66,0,0,1-21.59,5.62,34,34,0,0,1-11.14-.54c-3-.74-4.92-2-5.33-3.49a2,2,0,0,1-.05-1.15,2.49,2.49,0,0,1,.8-1.21,10.25,10.25,0,0,1,4-2,25,25,0,0,1,2.74-.62,14,14,0,0,1,2.87-.19c1.83.07,3,.67,3,1.39-.1-.7-1.48-1.21-3.15-1.2a16.34,16.34,0,0,0-5,.9,7.58,7.58,0,0,0-3.17,1.86,1.51,1.51,0,0,0-.16,2c.68,1.25,2.62,2.23,5.28,2.71a29.09,29.09,0,0,0,9.16.1c6.79-.88,13.17-2.84,17.43-5.23,4-2.25,6.09-4.81,5.92-7.14a5,5,0,0,1,0-2.37c.6-2.19,2.79-4.47,6.3-6.5a30,30,0,0,1,2.84-1.46l.78-.35.82-.34.76-.32.81-.3c2.15-.81,4.48-1.56,6.89-2.2a93.59,93.59,0,0,1,15.41-2.72c1.84-.17,3.67-.28,5.49-.35a25.19,25.19,0,0,0,6.61-3,11.48,11.48,0,0,0,4.58-5.2,7.59,7.59,0,0,0,0-5.37,13.73,13.73,0,0,0-3.2-5A21.35,21.35,0,0,1,229.62,59a8.57,8.57,0,0,1,1.91,5.42c-.1,2-1,4-3.39,6.14A21.91,21.91,0,0,1,224.5,73a52.09,52.09,0,0,1,14,2.6c6.49,2.45,10.25,5.86,11.09,9.69s-1.38,8.07-6.32,12-12.62,7.44-21.5,10a146.2,146.2,0,0,1-28.36,4.93c-9.53.8-18.7,1-27.65,1s-17.79,0-26.67.14c-5.07.08-10.17.25-15.3.55-6,.72-11,1-11.43,1a114.48,114.48,0,0,0-25.11,5.62,119.09,119.09,0,0,0-20.16,9.15,55.19,55.19,0,0,0-7.47,5.23c-2.17,1.79-4.07,3.63-5.94,5.47,0,0-.05,0-.05,0m404.7,0-.05,0c-1.87-1.82-3.77-3.67-5.95-5.46a56,56,0,0,0-7.46-5.22,119.51,119.51,0,0,0-20.17-9.15,113.91,113.91,0,0,0-25.11-5.62c-.42-.05-5.46-.28-11.43-1-5.13-.31-10.23-.47-15.3-.56-8.88-.15-17.68-.07-26.66-.12s-18.13-.25-27.64-1a147,147,0,0,1-28.38-4.93c-8.88-2.57-16.58-6.09-21.49-10s-7.18-8.11-6.35-12,4.62-7.25,11.11-9.71a52.66,52.66,0,0,1,14-2.59,21.11,21.11,0,0,1-3.64-2.47c-2.36-2.09-3.29-4.18-3.39-6.13A8.44,8.44,0,0,1,282.37,59a21.19,21.19,0,0,1,5.15-4.67,13.42,13.42,0,0,0-3.2,5,7.59,7.59,0,0,0,0,5.37,11.51,11.51,0,0,0,4.59,5.2,24.73,24.73,0,0,0,6.61,3c1.82.07,3.65.18,5.48.36A92.18,92.18,0,0,1,316.45,76c2.42.65,4.75,1.39,6.9,2.2l.81.3.76.31.82.35.79.35A29.86,29.86,0,0,1,329.36,81c3.5,2,5.71,4.31,6.28,6.49a4.64,4.64,0,0,1,0,2.37c-.15,2.33,1.92,4.89,5.93,7.14,4.28,2.39,10.65,4.35,17.44,5.24a29.08,29.08,0,0,0,9.16-.11c2.66-.48,4.61-1.46,5.26-2.72a1.49,1.49,0,0,0-.14-1.94,7.53,7.53,0,0,0-3.16-1.86,16.61,16.61,0,0,0-5-.9c-1.66,0-3,.5-3.15,1.2-.05-.72,1.17-1.32,3-1.39a13.8,13.8,0,0,1,2.85.19,25.15,25.15,0,0,1,2.75.62,10,10,0,0,1,4,2,2.44,2.44,0,0,1,.81,1.21,2.09,2.09,0,0,1,0,1.14c-.43,1.48-2.35,2.76-5.34,3.5a33.92,33.92,0,0,1-11.14.54,66,66,0,0,1-21.6-5.62,27.46,27.46,0,0,1-6.09-3.89,5.76,5.76,0,0,1-.55.26l-.58.25-.34.15-.27.09c-.44.17-1,.34-1.49.48a32,32,0,0,1-7.05,1,51.35,51.35,0,0,1-16.16-1.86,33.93,33.93,0,0,1-3.49-1.19A21.06,21.06,0,0,1,298.2,92c-1.79-1.06-2.92-2.25-3.2-3.38a2.76,2.76,0,0,1,1.34-3,9.25,9.25,0,0,1,2.25-1.12,15.54,15.54,0,0,1,3.46-.65,26.74,26.74,0,0,1,8.17.64,20.86,20.86,0,0,1,3.53,1.17,6,6,0,0,1,2.32,1.6c.88,1.14.15,2.26-1.68,2.81a12.29,12.29,0,0,1-7.26-.59c-.17-.07-.21-.18-.1-.25a1.13,1.13,0,0,1,.68,0,9.32,9.32,0,0,0,2.85.5,6,6,0,0,0,2.33-.3c1.21-.52,1.37-1.32.57-2.05a4.91,4.91,0,0,0-1.68-.95,16.73,16.73,0,0,0-2.55-.7,17,17,0,0,0-5.17-.19,8.05,8.05,0,0,0-1.86.48,4.71,4.71,0,0,0-1.35.83,1.67,1.67,0,0,0-.36,2.06,5.54,5.54,0,0,0,2.38,2.06,21.79,21.79,0,0,0,4.54,1.59,34.87,34.87,0,0,0,10.64,1c3.31-.24,5.65-1.06,7.24-2.3s2.09-2.67,1.53-4.18-2.2-3-4.63-4.38a21.3,21.3,0,0,0-2-1l-.52-.23-.52-.21-.36-.14-.25-.1-.6-.23c-1.64-.59-3.41-1.14-5.21-1.59a69.67,69.67,0,0,0-11.45-2c-7.83-.76-15.6-.19-20.8,1.6l-.93.33-.52.22-.42.18a15.83,15.83,0,0,0-1.75.82A16.94,16.94,0,0,0,274,82.13a8.89,8.89,0,0,0-3.26,4.37c-1,3.16.63,6.71,4.6,10s10.33,6.35,17.91,8.66a129.42,129.42,0,0,0,25.14,4.59c8.85.83,17.78,1.09,26.65,1.26s17.81.18,26.92.43a276,276,0,0,1,27.89,2,119.67,119.67,0,0,1,26.55,6.32,116.43,116.43,0,0,1,20.11,9.6,55.11,55.11,0,0,1,7.2,5.41c2,1.76,3.65,3.54,5.3,5.32" transform="translate(-53.03 0.02)" style="fill:#ebb973"/><path d="M459,178.2c-1.65,1.77-3.32,3.55-5.3,5.3a52.52,52.52,0,0,1-7.18,5.42,116.66,116.66,0,0,1-20.13,9.61,119.58,119.58,0,0,1-26.54,6.32,276,276,0,0,1-27.89,2c-9.1.25-18,.28-26.93.43s-17.79.44-26.65,1.27a130.22,130.22,0,0,0-25.13,4.59c-7.58,2.31-14,5.34-17.92,8.68s-5.57,6.86-4.59,10a9,9,0,0,0,3.26,4.37,18.75,18.75,0,0,0,2.92,1.83c.55.29,1.14.57,1.76.83l.42.18.54.21.91.34c5.21,1.79,13,2.35,20.8,1.6a71.26,71.26,0,0,0,11.46-2c1.8-.46,3.56-1,5.21-1.59l.6-.23.24-.09.35-.14.53-.22.52-.22c.71-.31,1.36-.64,1.95-1,2.46-1.34,4.09-2.86,4.66-4.38s0-3-1.55-4.17-3.9-2.07-7.24-2.31a35,35,0,0,0-10.64,1,22.5,22.5,0,0,0-4.53,1.59,5.6,5.6,0,0,0-2.38,2.06,1.67,1.67,0,0,0,.37,2.06,4.32,4.32,0,0,0,1.34.83,6.86,6.86,0,0,0,1.85.48,16.7,16.7,0,0,0,5.18-.19,16.41,16.41,0,0,0,2.55-.7,4.76,4.76,0,0,0,1.67-.94c.8-.74.66-1.55-.55-2.06a5.86,5.86,0,0,0-2.32-.3,9.59,9.59,0,0,0-2.89.51,1.23,1.23,0,0,1-.66,0c-.12-.08-.06-.18.09-.25a12.35,12.35,0,0,1,7.28-.59c1.82.55,2.56,1.67,1.67,2.8a5.8,5.8,0,0,1-2.31,1.61,21.92,21.92,0,0,1-3.54,1.17,27.21,27.21,0,0,1-8.15.65,15.8,15.8,0,0,1-3.49-.66,8.52,8.52,0,0,1-2.24-1.12,2.78,2.78,0,0,1-1.34-3.05c.28-1.12,1.41-2.31,3.19-3.38a20.39,20.39,0,0,1,3.11-1.45,35.37,35.37,0,0,1,3.48-1.19,51.66,51.66,0,0,1,16.15-1.87,32.72,32.72,0,0,1,7.06,1c.46.13,1,.31,1.48.48l.28.09.36.14.57.26.55.26a27.6,27.6,0,0,1,6.09-3.9,66,66,0,0,1,21.58-5.62,34,34,0,0,1,11.15.54c3,.75,4.91,2,5.33,3.49a2.23,2.23,0,0,1,.05,1.15,2.49,2.49,0,0,1-.8,1.21,10.12,10.12,0,0,1-4,2,23,23,0,0,1-2.75.62,14.7,14.7,0,0,1-2.86.2c-1.84-.08-3.05-.68-3-1.41.1.72,1.47,1.23,3.14,1.22a17,17,0,0,0,5-.91,7.72,7.72,0,0,0,3.17-1.85,1.54,1.54,0,0,0,.15-2c-.67-1.25-2.62-2.23-5.27-2.72a29.71,29.71,0,0,0-9.16-.1c-6.79.9-13.17,2.85-17.43,5.25-4,2.25-6.09,4.81-5.93,7.14a4.83,4.83,0,0,1,0,2.36c-.59,2.19-2.79,4.47-6.29,6.5a31.25,31.25,0,0,1-2.84,1.47l-.78.33-.82.36-.76.31-.81.3c-2.16.82-4.48,1.55-6.9,2.2a93.28,93.28,0,0,1-15.4,2.72c-1.84.18-3.67.29-5.48.35a25.27,25.27,0,0,0-6.62,3,11.53,11.53,0,0,0-4.58,5.2,7.53,7.53,0,0,0,0,5.37,13.81,13.81,0,0,0,3.19,5,21.59,21.59,0,0,1-5.15-4.67,8.57,8.57,0,0,1-1.92-5.43c.11-1.94,1-4,3.41-6.13a20.81,20.81,0,0,1,3.63-2.46,51.55,51.55,0,0,1-14-2.6c-6.5-2.45-10.26-5.86-11.09-9.7s1.37-8.06,6.31-11.94,12.63-7.45,21.5-10a146.06,146.06,0,0,1,28.36-4.92c9.52-.8,18.7-1,27.66-1s17.78,0,26.66-.14c5.07-.08,10.16-.24,15.3-.55,6-.73,11-.95,11.43-1a113.91,113.91,0,0,0,25.11-5.62,119.09,119.09,0,0,0,20.16-9.15,56.1,56.1,0,0,0,7.47-5.23c2.17-1.78,4.07-3.63,5.94-5.47h.05m-404.69,0,0,0c1.86,1.82,3.76,3.67,5.94,5.46a55.17,55.17,0,0,0,7.47,5.22,121,121,0,0,0,20.16,9.16,115.24,115.24,0,0,0,25.13,5.61c.41.05,5.45.28,11.42,1,5.12.3,10.23.46,15.3.55,8.87.15,17.68.07,26.66.12s18.12.25,27.64,1.05A146,146,0,0,1,221.79,211c8.89,2.58,16.59,6.09,21.5,10s7.18,8.11,6.34,12-4.61,7.24-11.1,9.7a52.26,52.26,0,0,1-14,2.59,20.55,20.55,0,0,1,3.64,2.47c2.36,2.1,3.29,4.18,3.39,6.12a8.45,8.45,0,0,1-1.91,5.44,21.69,21.69,0,0,1-5.14,4.66,13.72,13.72,0,0,0,3.19-5,7.53,7.53,0,0,0-.05-5.37,11.48,11.48,0,0,0-4.58-5.2,24.73,24.73,0,0,0-6.61-3c-1.82-.07-3.65-.17-5.49-.36a92.54,92.54,0,0,1-15.41-2.7c-2.41-.66-4.75-1.4-6.89-2.21l-.81-.3-.76-.31-.82-.35-.79-.34a29.86,29.86,0,0,1-2.83-1.47c-3.5-2-5.7-4.31-6.28-6.5a4.5,4.5,0,0,1,0-2.36c.16-2.32-1.91-4.89-5.92-7.13-4.28-2.4-10.65-4.36-17.44-5.25a29.7,29.7,0,0,0-9.16.1c-2.66.49-4.61,1.47-5.26,2.73a1.49,1.49,0,0,0,.15,1.95,7.63,7.63,0,0,0,3.15,1.85,17,17,0,0,0,5,.91c1.67,0,3-.5,3.16-1.22,0,.73-1.17,1.33-3,1.41a15.39,15.39,0,0,1-2.86-.19,27.71,27.71,0,0,1-2.75-.62,10.2,10.2,0,0,1-4-2.06,2.4,2.4,0,0,1-.81-1.21,2.1,2.1,0,0,1,0-1.14c.43-1.48,2.35-2.75,5.35-3.5a33.84,33.84,0,0,1,11.13-.54,66,66,0,0,1,21.6,5.62,28.28,28.28,0,0,1,6.1,3.9,2.91,2.91,0,0,1,.53-.26l.59-.26.34-.14.28-.1c.43-.17,1-.34,1.48-.48a32.05,32.05,0,0,1,7.06-1,51.29,51.29,0,0,1,16.15,1.86,33.38,33.38,0,0,1,3.5,1.2,19.94,19.94,0,0,1,3.08,1.44c1.79,1.06,2.92,2.25,3.2,3.38a2.77,2.77,0,0,1-1.34,3.05,9.08,9.08,0,0,1-2.25,1.11,14.94,14.94,0,0,1-3.47.67,27.33,27.33,0,0,1-8.16-.65,20.88,20.88,0,0,1-3.53-1.16,6.18,6.18,0,0,1-2.33-1.61c-.87-1.14-.13-2.26,1.69-2.81a12.29,12.29,0,0,1,7.26.59c.16.07.21.18.09.25a1.25,1.25,0,0,1-.67,0,9.09,9.09,0,0,0-2.85-.51,6.11,6.11,0,0,0-2.34.31c-1.2.51-1.36,1.32-.56,2a4.87,4.87,0,0,0,1.69.94,15,15,0,0,0,2.54.7,16.71,16.71,0,0,0,5.18.19,7.82,7.82,0,0,0,1.86-.48,4.73,4.73,0,0,0,1.33-.83,1.66,1.66,0,0,0,.37-2.06,5.62,5.62,0,0,0-2.37-2.06,23.37,23.37,0,0,0-4.55-1.59,34.86,34.86,0,0,0-10.63-.95c-3.32.24-5.66,1.07-7.25,2.31s-2.1,2.66-1.53,4.18,2.2,3,4.63,4.37c.61.33,1.26.66,2,1l.52.22.54.22.35.14.25.09.61.23a51.05,51.05,0,0,0,5.2,1.58,67.63,67.63,0,0,0,11.45,2c7.83.75,15.6.19,20.8-1.6l.93-.33.51-.21.44-.19a15.58,15.58,0,0,0,1.74-.83,15.89,15.89,0,0,0,2.92-1.83,8.94,8.94,0,0,0,3.27-4.36c1-3.17-.63-6.72-4.6-10s-10.32-6.36-17.92-8.66a128.44,128.44,0,0,0-25.13-4.58c-8.85-.84-17.78-1.1-26.65-1.27s-17.81-.18-26.92-.43a276,276,0,0,1-27.89-2,118.57,118.57,0,0,1-26.55-6.32,116.81,116.81,0,0,1-20.11-9.6,53.59,53.59,0,0,1-7.2-5.41c-2-1.77-3.65-3.53-5.3-5.32" transform="translate(-53.03 0.02)" style="fill:#ebb973"/><path d="M145.21,38.51a6.13,6.13,0,0,1-5.31-3.16,14.59,14.59,0,0,1-2.06-8.13,20.43,20.43,0,0,1,3.95-12.55q3.94-5.34,9.31-5.33a6.25,6.25,0,0,1,5.4,3.12,14.48,14.48,0,0,1,2.07,8.15,20.48,20.48,0,0,1-4,12.59Q150.64,38.51,145.21,38.51Zm2.17-1.68c2.28,0,4.2-1.35,5.74-4.07a20.16,20.16,0,0,0,2.31-10.09,17.4,17.4,0,0,0-1.81-8.37c-1.2-2.22-2.72-3.33-4.54-3.33-2.31,0-4.23,1.36-5.78,4.06A20.24,20.24,0,0,0,141,25.16a17.35,17.35,0,0,0,1.81,8.37Q144.59,36.83,147.38,36.83Z" transform="translate(-53.03 0.02)" style="fill:#ebb973"/><path d="M171.89,34.07,174.7,32q.68,5,4.9,5A4.43,4.43,0,0,0,183,35.61a4.91,4.91,0,0,0,1.31-3.55c0-2-1-3.94-2.9-5.89l-2-2a21.65,21.65,0,0,1-3.23-3.88,6.27,6.27,0,0,1-.82-3.2,7.58,7.58,0,0,1,2.17-5.55A7.42,7.42,0,0,1,183,9.34a8.94,8.94,0,0,1,5,1.55l-1,2.73-.43,1.2c-.24.71-.53,1.07-.86,1.07a.69.69,0,0,1-.45-.21,6.94,6.94,0,0,0,.28-1.7,2.66,2.66,0,0,0-1.17-2.2,4.63,4.63,0,0,0-2.89-.89q-3.9,0-3.9,4a4.93,4.93,0,0,0,.87,2.75,31.44,31.44,0,0,0,3.61,4.09l1.61,1.64a9.14,9.14,0,0,1,3.07,6.45A8.29,8.29,0,0,1,184.18,36a8.73,8.73,0,0,1-6.35,2.48A5.65,5.65,0,0,1,171.89,34.07Z" transform="translate(-53.03 0.02)" style="fill:#ebb973"/><path d="M205.24,21.8l-2.7,3.2a13.19,13.19,0,0,1-.38-3.13A11.77,11.77,0,0,1,206,12.76c1.89-1.74,4.49-2.6,7.8-2.6h9.89c4.1,0,6.14-1.57,6.14-4.69a5.41,5.41,0,0,0-.91-3L231,0a6.07,6.07,0,0,1,.73,3.15,8.87,8.87,0,0,1-2.94,6.77,10.29,10.29,0,0,1-7.27,2.73h-4.61l-1.24,13.84-.19,2.28a11.17,11.17,0,0,1-1,4.19,7.58,7.58,0,0,1-2.84,2.52l4.82.31-2,2.37-8.08-.45,2.14-2.54,1.8.25q2-1.57,2.49-6.45l.16-2,1.29-14.33H211.4q-6.94,0-6.94,5.67A8.64,8.64,0,0,0,205.24,21.8Z" transform="translate(-53.03 0.02)" style="fill:#ebb973"/><path d="M243.05,21.93l-2.69,3.19A13.44,13.44,0,0,1,240,22a12,12,0,0,1,3.86-9.27q2.8-2.58,8-2.58h5.47q3.07,0,6.29-.29l-1.34,4.21-.27.76c-.27.81-.62,1.21-1.06,1.21a1,1,0,0,1-.23,0,10,10,0,0,0,.18-1.64,1.56,1.56,0,0,0-1.15-1.69,28.83,28.83,0,0,0-5.75-.33h-1.61l-.89,9.93h3.24a33.64,33.64,0,0,0,5-.33c-1.26,1.87-2.54,2.8-3.82,2.8a30.5,30.5,0,0,1-3.06-.2c-.54,0-.93-.06-1.15-.06h-.4l-.16,1.77a18,18,0,0,1-1.1,5.51,9.1,9.1,0,0,1-3,3.28l3.62.35,1.48.16c1,.1,2.28.15,3.73.15A7.65,7.65,0,0,0,262,32.82a1.25,1.25,0,0,1,.28.74c0,.38-.59,1.16-1.77,2.35a7.86,7.86,0,0,1-5.65,2.6,78.49,78.49,0,0,1-8.15-.6l-6.17-.71L238.31,37l3-2.83c1.09.23,2.4.44,3.94.62a4.12,4.12,0,0,0,2.18-2.21,24.93,24.93,0,0,0,.95-5.76l1.3-14.49h-.58a7.29,7.29,0,0,0-5,1.62,5.75,5.75,0,0,0-1.82,4.5A8.74,8.74,0,0,0,243.05,21.93Z" transform="translate(-53.03 0.02)" style="fill:#ebb973"/><path d="M293.52,23.87c.22.52.38.9.48,1.16q2.64,6.3,3.75,8.28c.74,1.33,1.42,2,2.05,2,1,.07,1.77-.88,2.32-2.83a1.06,1.06,0,0,1,.55.84,6,6,0,0,1-1.4,3.22c-.94,1.28-1.72,1.92-2.35,1.92q-1.38,0-3.58-3.73A57.69,57.69,0,0,1,291,25a13.86,13.86,0,0,1-1.56.1,14.94,14.94,0,0,1-1.59-.1l-.12,1.35-.22,2.36a11.1,11.1,0,0,1-1,4.2,7.44,7.44,0,0,1-2.83,2.51l3.91.31-2,2.37-7.17-.45,2.12-2.54,1.8.25q2-1.57,2.49-6.45l.18-2,1.39-15.51q-7.53,1.75-7.54,7a9.21,9.21,0,0,0,.72,3.74l-2.67,2.91a14.85,14.85,0,0,1-.35-3.19,11.78,11.78,0,0,1,3.83-9.07,14,14,0,0,1,9.85-3.52q8.19,0,8.18,6.43Q298.39,20.46,293.52,23.87ZM289.05,11.3,288,23.2a13.09,13.09,0,0,0,2.43.26,10.94,10.94,0,0,0,2.24-.26,8.17,8.17,0,0,0,3-6.36Q295.63,11.31,289.05,11.3Z" transform="translate(-53.03 0.02)" style="fill:#ebb973"/><path d="M318.18,21.8l-2.7,3.2a13.87,13.87,0,0,1-.38-3.17,11.48,11.48,0,0,1,3.18-8.48,11.39,11.39,0,0,1,8.45-3.19H328q-.75,4.68-.9,6.3l-.9,10L326,28.75a11.17,11.17,0,0,1-1,4.19,7.57,7.57,0,0,1-2.82,2.52l4.8.31-2,2.37-8.06-.45,2.12-2.54,1.81.25q2-1.57,2.48-6.45l.18-2,1.29-14.33h-.52q-6.9,0-6.89,5.63A8.7,8.7,0,0,0,318.18,21.8Z" transform="translate(-53.03 0.02)" style="fill:#ebb973"/><path d="M345.74,21.87,343.14,25a14.41,14.41,0,0,1-.68-4.24A10.36,10.36,0,0,1,346,12.53q3-2.62,10.2-2.62,1.23,0,2.16.06l2.63.21h1.16q-1.29,2.49-1.29,10.1v1.07L361,23.7a46.59,46.59,0,0,0,.84,8.67,7.83,7.83,0,0,0,.65,2.21,1.18,1.18,0,0,0,1.09.49,3.67,3.67,0,0,0,1.92-.67,1.81,1.81,0,0,1,.12.57,1,1,0,0,1-.65.88l-.77.47-4.08,2.19a53.55,53.55,0,0,1-1.64-10.85l-1.26,1.09h-5.56q-1.53,4.79-4.17,6.83l3.42.21-1.79,2.33-6.6-.29,2.2-2.45,1.66.12a8.18,8.18,0,0,0,1.92-2.87q.8-1.86,2.36-7.17l.5-1.7a36.38,36.38,0,0,1,2.9-7.48,11.37,11.37,0,0,1,3.74-3.85,24.29,24.29,0,0,0-5.48-.6q-7.33,0-7.34,6.13A9.7,9.7,0,0,0,345.74,21.87Zm12.67,4.66c-.16-2.37-.23-4.29-.23-5.76,0-.75,0-1.36,0-1.84l.13-2.37a31.46,31.46,0,0,1,.37-3.72q-3.25,2.45-5.33,10c-.4,1.46-.63,2.3-.7,2.52l-.38,1.16Z" transform="translate(-53.03 0.02)" style="fill:#ebb973"/></svg>